<?xml version="1.0" standalone="no"?>
<!DOCTYPE svg PUBLIC "-//W3C//DTD SVG 20010904//EN"
 "http://www.w3.org/TR/2001/REC-SVG-20010904/DTD/svg10.dtd">
<svg version="1.0" xmlns="http://www.w3.org/2000/svg"
 width="300.000000pt" height="300.000000pt" viewBox="0 0 300.000000 300.000000"
 preserveAspectRatio="xMidYMid meet">

<g transform="translate(0.000000,300.000000) scale(0.100000,-0.100000)"
fill="#000000" stroke="none">
<path d="M1375 2989 c-477 -37 -906 -305 -1160 -722 -254 -418 -279 -958 -66
-1413 137 -291 414 -568 705 -705 455 -213 994 -188 1414 66 487 296 763 829
722 1393 -12 157 -32 254 -85 403 -223 628 -853 1031 -1530 978z m889 -838 c9
-158 0 -287 -30 -446 -42 -217 -113 -365 -233 -485 -64 -63 -161 -123 -241
-149 -33 -10 -35 -14 -38 -58 -4 -57 -7 -63 -37 -63 -30 0 -35 16 -35 109 0
316 -269 669 -620 814 -89 37 -205 65 -218 53 -13 -13 -14 -207 -3 -320 50
-470 228 -725 545 -780 71 -12 95 -29 83 -60 -8 -21 -60 -21 -146 -1 -281 67
-468 312 -537 705 -14 79 -19 156 -19 307 0 252 -6 241 123 219 157 -27 305
-94 451 -204 46 -34 84 -61 86 -60 1 2 26 39 56 83 131 193 352 360 567 430
74 24 204 43 223 34 13 -6 17 -33 23 -128z m-1281 -403 c259 -274 518 -674
593 -913 30 -95 27 -118 -13 -113 -24 3 -29 12 -58 98 -82 244 -286 561 -544
847 -56 61 -101 114 -101 117 0 9 32 36 43 36 7 0 43 -33 80 -72z"/>
<path d="M2130 2205 c-128 -28 -229 -70 -345 -143 -91 -58 -280 -249 -320
-324 l-29 -56 40 -44 c22 -23 55 -64 73 -90 19 -27 35 -48 37 -48 1 0 21 30
45 67 90 138 360 464 415 500 27 17 64 9 64 -14 0 -9 -39 -59 -88 -112 -131
-143 -180 -204 -277 -336 -125 -171 -124 -170 -91 -244 14 -33 34 -94 44 -135
19 -87 14 -85 122 -34 96 46 206 160 259 269 52 109 87 234 106 376 16 119 21
369 8 376 -5 2 -33 -2 -63 -8z"/>
</g>
</svg>
